<svg width="685" height="305" viewBox="0 0 685 305" fill="none" xmlns="http://www.w3.org/2000/svg">
<path d="M359 90L341.5 99L324.5 90V61.5C324.5 61.5 307.808 76.9643 307 90C306.407 99.5575 314 113.5 314 113.5H371C371 113.5 378.686 99.5512 378 90C377.041 76.6578 359 61.5 359 61.5V90Z" fill="white"/>
<path d="M487 244H197.5L343.5 272.5L487 244Z" fill="#D52E38"/>
<path d="M104 127H580L339.945 110L104 127Z" fill="#D52E38"/>
<path d="M145.3 219H116.81L109.53 211.72V173.78L116.81 166.5H145.3L152.51 173.71V183.72H140.68V177.84L139.98 177.14H122.69L121.99 177.84V207.66L122.69 208.36H139.98L140.68 207.66V199.68L140.82 199.82H131.02V191.07H152.51V211.79L145.3 219ZM179.842 219H158.772V208.36H169.132L161.432 211.3L172.912 173.78L175.432 177.14H167.452V166.5H202.032V177.14H193.982L196.572 173.78L208.052 211.3L200.422 208.36H210.712V219H189.642V208.36H200.422L195.452 212.63L183.762 174.76H185.652L174.032 212.63L169.132 208.36H179.842V219ZM198.182 202.34H171.302L174.942 192.4H194.612L198.182 202.34ZM264.873 219H243.593V208.36H253.253L249.753 212.28L239.813 196.6L253.183 195.83L263.193 211.65L253.323 208.36H264.873V219ZM236.873 219H215.943V208.36H226.373L220.773 214.03V171.47L226.373 177.14H215.943V166.5H252.903L261.163 174.76V189.81L251.853 199.12H230.153V189.11H247.723L248.703 188.2V178.05L247.723 177.14H227.633L233.233 171.47V214.03L227.633 208.36H236.873V219ZM289.627 219H268.557V208.36H278.917L271.217 211.3L282.697 173.78L285.217 177.14H277.237V166.5H311.817V177.14H303.767L306.357 173.78L317.837 211.3L310.207 208.36H320.497V219H299.427V208.36H310.207L305.237 212.63L293.547 174.76H295.437L283.817 212.63L278.917 208.36H289.627V219ZM307.967 202.34H281.087L284.727 192.4H304.397L307.967 202.34ZM362.478 219H333.988L326.708 211.72V173.78L333.988 166.5H362.478L369.688 173.71V183.72H357.858V177.84L357.158 177.14H339.868L339.168 177.84V207.66L339.868 208.36H357.158L357.858 207.66V199.68L357.998 199.82H348.198V191.07H369.688V211.79L362.478 219ZM421.87 219H379.8V208.36H390.23L384.63 214.03V171.47L390.23 177.14H379.8V166.5H421.87V183.02H409.97V171.47L415.01 177.14H391.49L397.09 171.47V192.75L391.49 187.78H412.14V197.72H391.49L397.09 192.75V214.03L391.49 208.36H415.01L409.97 214.03V202.48H421.87V219Z" fill="#D52E38"/>
<path d="M454.715 219H431.685V208.36H442.115L436.515 214.03V171.47L442.115 177.14H431.685V166.5H467.385L474.945 174.06V191.42L467.385 199.05H445.895V189.04H461.785L462.485 188.27V177.84L461.785 177.14H443.375L448.975 171.47V214.03L443.375 208.36H454.715V219ZM531.201 219H509.921V208.36H519.581L516.081 212.28L506.141 196.6L519.511 195.83L529.521 211.65L519.651 208.36H531.201V219ZM503.201 219H482.271V208.36H492.701L487.101 214.03V171.47L492.701 177.14H482.271V166.5H519.231L527.491 174.76V189.81L518.181 199.12H496.481V189.11H514.051L515.031 188.2V178.05L514.051 177.14H493.961L499.561 171.47V214.03L493.961 208.36H503.201V219ZM575.416 219H546.996L539.716 211.72V173.78L546.996 166.5H575.416L582.696 173.78V211.72L575.416 219ZM552.176 207.66L552.876 208.36H569.536L570.236 207.66V177.84L569.536 177.14H552.876L552.176 177.84V207.66Z" fill="white"/>
<path d="M434.5 95L674 112L606.5 242L342.5 297.5L76.5 242L11 112L252 95" stroke="white" stroke-width="13"/>
<path fill-rule="evenodd" clip-rule="evenodd" d="M405.941 114.563C408.347 109.914 413.032 106.875 418.319 106.875H424.562V73.125H418.319C412.609 73.125 407.575 69.5813 405.409 64.2938C405.409 64.2563 405.384 64.2188 405.359 64.1813C405.347 64.1625 405.334 64.1437 405.325 64.125C403.131 58.8375 404.144 52.7344 408.194 48.6844L412.609 44.2687L388.731 20.3906L384.316 24.8062C380.266 28.8562 374.162 29.8687 368.875 27.675C368.838 27.675 368.8 27.65 368.763 27.625C368.744 27.6125 368.725 27.6 368.706 27.5906C363.419 25.3969 359.875 20.3906 359.875 14.6812V8.4375H326.125V14.6812C326.125 20.3906 322.581 25.425 317.294 27.5906C317.256 27.5906 317.219 27.6156 317.181 27.6406C317.162 27.6531 317.144 27.6656 317.125 27.675C311.837 29.8687 305.734 28.8562 301.684 24.8062L297.269 20.3906L273.391 44.2687L277.806 48.6844C281.856 52.7344 282.869 58.8375 280.675 64.125C280.675 64.1625 280.65 64.2 280.625 64.2375C280.612 64.2563 280.6 64.275 280.591 64.2938C278.397 69.5813 273.391 73.125 267.681 73.125H261.438V106.875H267.681C272.915 106.875 277.582 109.853 279.991 114.423L301.002 112.873C297.294 106.079 295.188 98.2859 295.188 90C295.188 63.5906 316.591 42.1875 343 42.1875C369.409 42.1875 390.812 63.5906 390.812 90C390.812 98.3808 388.657 106.257 384.87 113.106L405.941 114.563Z" fill="white"/>
</svg>
